# xmcd
#
# Track frame offsets:
#	150
#	12832
#	28030
#	40992
#	54177
#	65162
#	77145
#	88395
#	98487
#	112265
#	123550
#	135480
#	149112
#	162717
#	177765
#	189107
#	200675
#	212547
#	222840
#	232495
#	243650
#	253545
#	267547
#	284067
#	296492
#	309407
#
# Disc length: 4280 seconds
#
# Revision: 1
# Processed by: cddbd v1.5.1PL0 Copyright (c) Steve Scherf et al.
# Submitted via: EasyCDDAExtractor 7.0.9.1
#
DISCID=9d10b61a
DTITLE=Bobby 'Fats' Mizzell - Beverly Hills Boogie
DYEAR=1900
DGENRE=blues
TTITLE0=Beverly Hills Boogie
TTITLE1=My Lonely Room
TTITLE2=Rockin' On The Skateboard
TTITLE3=House Of Boogie Woogie (vcl Hadda Brooks)
TTITLE4=Rambo Rock
TTITLE5=Sylacauga Boogie
TTITLE6=How Could You Hurt Me
TTITLE7=Cocaine Boogie
TTITLE8=Palm Spring Blues (instr.)
TTITLE9=Birmingham Boogie
TTITLE10=Moron Rock
TTITLE11=Romp and Stomp The Joint
TTITLE12=Welcome To California Blues
TTITLE13=Robert Johnson Blues
TTITLE14=Over The Hill
TTITLE15=Go Get A Haircut Rock
TTITLE16=Ghost Town Rock
TTITLE17=My Baby's Gone Boppin'
TTITLE18=School House Rock
TTITLE19=Now's The Time To Love Me
TTITLE20=They Raided The Joint
TTITLE21=Juice On The Loose
TTITLE22=Alabama Stronghand Blues
TTITLE23=Rocket In My Pocket
TTITLE24=House Of Boogie Woogie
TTITLE25=Fat Man Boogie
EXTD=
EXTT0=
EXTT1=
EXTT2=
EXTT3=
EXTT4=
EXTT5=
EXTT6=
EXTT7=
EXTT8=
EXTT9=
EXTT10=
EXTT11=
EXTT12=
EXTT13=
EXTT14=
EXTT15=
EXTT16=
EXTT17=
EXTT18=
EXTT19=
EXTT20=
EXTT21=
EXTT22=
EXTT23=
EXTT24=
EXTT25=
PLAYORDER=
